<?xml version="1.0" encoding="utf-8"?>
<!-- Generator: Adobe Illustrator 19.1.0, SVG Export Plug-In . SVG Version: 6.00 Build 0)  -->
<svg version="1.1" id="Layer_1" xmlns="http://www.w3.org/2000/svg" xmlns:xlink="http://www.w3.org/1999/xlink" x="0px" y="0px"
	 viewBox="-93 41 64 64" style="enable-background:new -93 41 64 64;" xml:space="preserve">
    
<style type="text/css">
	.st0{fill:#FA940B;}
	.st1{fill:#FFFFFF;}
	.st2{font-family:'TitilliumWeb-Regular';}
	.st3{font-size:8.7598px;}
    .path:hover{fill:#00000;}
    
</style>

<path onmouseover="evt.target.setAttribute('opacity', '0.5');"
onmouseout="evt.target.setAttribute('opacity','1)');"
      class="st0" d="M-86.8,74.9c-0.5-0.8-1.2-1.4-1.7-2.3c-2.9-4.5-0.7-10.3,4.4-11.6c2.5-0.6,4.8,0.1,6.9,1.4
	c1.3,0.7,2.3,1.7,3.5,2.5c1.4,1,2.9,1.6,4.7,1.6c5,0,10.2,0,15.2,0c1.5,0,2.9-0.5,4.1-1.5c2.1-1.8,4.3-3.3,7-4.1
	c5-1.3,9.3,3.2,9.3,7.2c0,2.3-1.1,4.3-2.5,6c-0.2,0.2-0.4,0.4-0.5,0.6c0.5,0.6,1.1,1.3,1.5,2c3.2,4.6,1.2,10.4-4.1,11.9
	c-1.9,0.5-3.8,0.2-5.5-0.5c-1.9-0.8-3.6-2.1-5.1-3.4c-1.3-1.1-2.7-1.6-4.3-1.6c-5.2,0-10.5,0-15.6,0c-1.4,0-2.6,0.5-3.7,1.4
	c-2.2,1.8-4.3,3.5-7.1,4.2c-5.4,1.4-9.6-3.3-9.6-7.4c0.1-2.3,1.1-4.1,2.6-5.9C-87.1,75.3-86.9,75.1-86.8,74.9z"/>
<text transform="matrix(1 0 0 1 -77.5113 77.8418)" class="st1 st2 st3 ">DONATE</text>
</svg>
