<?xml version="1.0" encoding="utf-8"?>
<!-- Generator: Adobe Illustrator 19.1.0, SVG Export Plug-In . SVG Version: 6.00 Build 0)  -->
<svg version="1.1" id="Layer_1" xmlns="http://www.w3.org/2000/svg" xmlns:xlink="http://www.w3.org/1999/xlink" x="0px" y="0px"
	 viewBox="0 0 255.4 257.1" style="enable-background:new 0 0 255.4 257.1;" xml:space="preserve">
<style type="text/css">
	.st0{fill:#FFFFFF;}
</style>
<g>
	<path class="st0" d="M241.2,127.8C241.3,127.8,241.3,127.8,241.2,127.8c0.1-29.8,0.2-59.6,0-89.5c-0.1-15.3-8.8-23.6-24.1-23.6
		c-59.3,0-118.6,0-177.9,0c-15.2,0-23.9,8.6-23.9,23.8c-0.1,59.3-0.1,118.6,0,177.9c0,15.2,8.7,23.8,24,23.8
		c53.3,0.1,106.6,0.1,159.9,0.1c7,0,14,0.1,21-0.2c12.3-0.5,21-9.3,21-21.5C241.3,188.4,241.2,158.1,241.2,127.8z"/>
	<path d="M241.2,127.8c0,30.3,0.1,60.6,0,91c0,12.2-8.7,21-21,21.5c-7,0.3-14,0.2-21,0.2c-53.3,0-106.6-0.1-159.9-0.1
		c-15.2,0-24-8.5-24-23.8c-0.1-59.3-0.1-118.6,0-177.9c0-15.2,8.8-23.8,23.9-23.8c59.3,0,118.6,0,177.9,0c15.3,0,24,8.3,24.1,23.6
		C241.4,68.2,241.3,98,241.2,127.8C241.3,127.8,241.3,127.8,241.2,127.8z M105.2,229.7c0.3-0.8,0.7-1.5,1-2.3
		c-3.9-1.5-7.8-3.5-11.8-4.4c-13.8-2.9-22.8-11.7-29.5-23.4c-1.7-3-1.9-5.2,1.4-7.6c6.3-4.5,10.1-10.9,11.8-18.5
		c0.9-4-0.5-6.4-4.3-6.8c-5.4-0.6-7.6-4-9.1-9.3c7.1,1.4,13.1,4,18.3,8.2c4.6,3.7,9.7,5.5,15.7,5.1c6.8-0.5,13.6-0.7,20.4-1.3
		c1.1-0.1,2-1.5,3-2.3c-0.3-0.5-0.6-0.9-0.9-1.4c-3.1,0-6.4-0.5-9.4,0.1c-13.7,2.5-25.3-1.4-36.2-9.6c-3.1-2.4-7.5-3.4-11.5-4.4
		c-3.6-0.9-5.5,1.4-4.7,4.9c0.6,2.8,1.9,5.4,3,8.2c-8.2-0.9-13.6-6.9-14.8-16.8c-0.8-6.5-1.5-13-2.1-19.5c-0.5-5.3,2.2-8.8,7.5-9.2
		c5-0.3,10-0.3,14.9,0.2c8.8,1,12,8.6,6.9,15.7c-0.8,1.1-1.4,2.3-2.4,3.9c9.1-1.3,13.5-9.7,9.2-16.6c-2.7-4.4-6.4-7.8-11.8-8.4
		c-4.8-0.5-9.7-0.7-15.4-1.1c9.7-6.7,21.2-8.8,29.3-16.3c-0.3-0.7-0.7-1.3-1-2c-8.9,3.8-17.8,7.5-26.9,11.3c-2-6.5-2.8-12.8,0.5-19
		c2.8-5.3,7.7-5.4,10.8-0.1c1,1.7,1.4,3.7,2.3,5.5c0.4,0.9,1.1,1.7,1.6,2.5c1.8-9-3.6-13.2-11.6-17c2.3-3.3,4-6.5,6.4-8.8
		c3.8-3.7,8-7,12.2-10.2c2.6-2,5.4-4.1,8.5-5c9.8-3.1,19.7-6,29.7-8.5c5.1-1.3,10.5-1.7,15.8-1.9c10.4-0.3,20.7-0.4,30.9,3.7
		C168.3,49.7,174,51,179,55c13.3,10.8,27,21.1,40.5,31.6c7.1,5.5,7.5,10,1.2,16.4c-1.3,1.3-2.7,2.5-4.1,3.7
		c-12.1,9.4-25,17.8-33.6,30.9c-1.2,1.8-5.3,3.2-7.3,2.6c-6.6-2-12.5-6-13.1-13.5c-0.7-9-0.4-18.2,0.4-27.3
		c0.9-10,0.8-19.6-4.6-28.5c-3.9-6.5-9.4-10.8-16.8-12.5c-0.6,0.7-1.3,1.4-1.9,2.1c2.3,1.5,4.7,3,6.9,4.7
		c7.5,5.6,10.9,13.5,10.7,22.6c-0.2,7.8-1.2,15.6-2.3,23.3c-1.6,11.3,0.4,20.8,9.7,28.6c10.1,8.5,12.5,10.5,22.8-0.2
		c2.3,5.3,4.5,10.5,6.6,15.7c6.8,16.7,13.1,33.5,13.5,51.8c0.1,7.2,1.5,13.9,6.4,19.4c1.3,1.5,3.6,2.9,5.5,2.9
		c7.4,0.3,11.2-4.6,11.2-13.2c0-59.2,0-118.3,0-177.5c0-9-3.8-13-13-13c-59.5,0-119,0.1-178.5-0.2c-8.7,0-13.2,5.3-13.1,13
		c0.2,58.2,0.1,116.3,0.2,174.5c0,1.2,0.2,2.4,0.3,3.2c10.9-6.7,21.6-13.2,32.6-20c1.9,3.3,3.2,5.5,4.4,7.8
		c-10.3,8.3-20.2,16.3-30.9,24.9c6.6,0.9,11.5,1.2,16.2-3.1c6.1-5.6,12.8-10.4,19.4-15.5C78.3,222.4,92.2,225,105.2,229.7z
		 M135.2,89.4c0.1-1.4,0.4-1.9,0.2-2.3c-3.8-7.4-18.6-12.8-26.3-9.6c-6.7,2.9-9.5,6.8-8.2,12.8c1.1-2,1.8-3.3,2.5-4.7
		c3.6-6.9,11.6-8.6,19.4-3.9C126.8,84,130.8,86.6,135.2,89.4z M112.1,86.2c-4.1,2.3-5.8,5.9-4.5,9c1.2,2.7,8.1,5.2,12,4
		c1.6-0.5,2.7-2.2,4.1-3.3c-0.3-0.4-0.6-0.7-0.9-1.1C112.1,97.1,110.4,95.7,112.1,86.2z M66.9,96.9c-0.3-0.5-0.6-1-0.8-1.5
		c-1.4,0.3-2.9,0.6-4.7,1c0-2.3,0-4.2,0-6c-0.5-0.1-1.1-0.3-1.6-0.4c-0.6,2-1.9,4.1-1.6,6c0.2,1.4,2.4,3.5,3.7,3.6
		C63.5,99.7,65.2,97.9,66.9,96.9z"/>
	<path class="st0" d="M105.2,229.7c-12.9-4.6-26.8-7.3-36.8-19.4c-6.6,5.2-13.3,10-19.4,15.5c-4.7,4.3-9.6,4-16.2,3.1
		c10.7-8.7,20.7-16.7,30.9-24.9c-1.3-2.2-2.6-4.5-4.4-7.8c-11,6.7-21.7,13.3-32.6,20c-0.1-0.8-0.3-2-0.3-3.2
		c0-58.2,0-116.3-0.2-174.5c0-7.8,4.5-13.1,13.1-13c59.5,0.3,119,0.2,178.5,0.2c9.1,0,13,4,13,13c-0.1,59.2-0.1,118.3,0,177.5
		c0,8.6-3.8,13.5-11.2,13.2c-1.9-0.1-4.1-1.5-5.5-2.9c-4.9-5.5-6.2-12.2-6.4-19.4c-0.4-18.3-6.7-35.2-13.5-51.8
		c-2.1-5.2-4.4-10.3-6.6-15.7c-10.4,10.7-12.7,8.7-22.8,0.2c-9.3-7.8-11.4-17.3-9.7-28.6c1.1-7.7,2.2-15.5,2.3-23.3
		c0.2-9.1-3.2-16.9-10.7-22.6c-2.2-1.7-4.6-3.1-6.9-4.7c0.6-0.7,1.3-1.4,1.9-2.1c7.4,1.7,12.9,6,16.8,12.5
		c5.3,8.9,5.4,18.5,4.6,28.5c-0.8,9-1.1,18.2-0.4,27.3c0.5,7.4,6.5,11.5,13.1,13.5c2.1,0.6,6.1-0.8,7.3-2.6
		c8.7-13.2,21.6-21.6,33.6-30.9c1.4-1.1,2.8-2.4,4.1-3.7c6.3-6.4,5.9-11-1.2-16.4C205.9,76.2,192.2,65.8,179,55
		c-5-4.1-10.6-5.3-16.2-7.5c-10.3-4-20.5-3.9-30.9-3.7c-5.3,0.1-10.7,0.6-15.8,1.9c-10,2.4-19.9,5.4-29.7,8.5c-3.1,1-5.9,3.1-8.5,5
		c-4.2,3.2-8.4,6.5-12.2,10.2c-2.4,2.4-4.1,5.6-6.4,8.8c8,3.8,13.4,8,11.6,17c-0.5-0.8-1.2-1.6-1.6-2.5C68.4,91,68,89,67,87.3
		c-3.1-5.2-8-5.2-10.8,0.1c-3.3,6.2-2.5,12.5-0.5,19c9.1-3.8,18-7.6,26.9-11.3c0.3,0.7,0.7,1.3,1,2c-8.1,7.5-19.6,9.6-29.3,16.3
		c5.7,0.4,10.6,0.6,15.4,1.1c5.4,0.6,9.1,4,11.8,8.4c4.3,6.9,0,15.3-9.2,16.6c1-1.6,1.6-2.8,2.4-3.9c5.1-7.1,1.9-14.8-6.9-15.7
		c-4.9-0.5-10-0.6-14.9-0.2c-5.3,0.4-8,3.9-7.5,9.2c0.6,6.5,1.3,13,2.1,19.5c1.3,9.9,6.6,15.9,14.8,16.8c-1-2.8-2.4-5.4-3-8.2
		c-0.8-3.5,1.1-5.8,4.7-4.9c4,1,8.3,2,11.5,4.4c10.9,8.2,22.5,12.2,36.2,9.6c3-0.6,6.3-0.1,9.4-0.1c0.3,0.5,0.6,0.9,0.9,1.4
		c-1,0.8-1.9,2.2-3,2.3c-6.8,0.6-13.6,0.7-20.4,1.3c-6,0.5-11-1.3-15.7-5.1c-5.2-4.2-11.2-6.8-18.3-8.2c1.5,5.3,3.7,8.6,9.1,9.3
		c3.8,0.4,5.2,2.8,4.3,6.8c-1.7,7.6-5.5,14-11.8,18.5c-3.3,2.4-3.1,4.5-1.4,7.6c6.7,11.8,15.7,20.5,29.5,23.4
		c4.1,0.9,7.9,2.9,11.8,4.4C105.8,228.2,105.5,228.9,105.2,229.7z"/>
	<path class="st0" d="M135.2,89.4c-4.4-2.8-8.4-5.3-12.4-7.7c-7.8-4.6-15.8-3-19.4,3.9c-0.7,1.4-1.5,2.7-2.5,4.7
		c-1.3-6,1.5-9.9,8.2-12.8c7.7-3.3,22.5,2.1,26.3,9.6C135.6,87.4,135.3,88,135.2,89.4z"/>
	<path class="st0" d="M112.1,86.2c-1.8,9.5,0,10.9,10.8,8.6c0.3,0.4,0.6,0.7,0.9,1.1c-1.4,1.1-2.5,2.8-4.1,3.3
		c-3.9,1.2-10.8-1.3-12-4C106.3,92.1,108.1,88.5,112.1,86.2z"/>
	<path class="st0" d="M66.9,96.9c-1.7,1-3.4,2.8-5,2.7c-1.4-0.1-3.5-2.2-3.7-3.6c-0.3-1.9,1-4,1.6-6c0.5,0.1,1.1,0.3,1.6,0.4
		c0,1.9,0,3.7,0,6c1.8-0.4,3.2-0.7,4.7-1C66.3,95.9,66.6,96.4,66.9,96.9z"/>
</g>
</svg>
