<?xml version="1.0" encoding="utf-8"?>
<!-- Generator: Adobe Illustrator 19.2.0, SVG Export Plug-In . SVG Version: 6.00 Build 0)  -->
<!DOCTYPE svg PUBLIC "-//W3C//DTD SVG 1.1//EN" "http://www.w3.org/Graphics/SVG/1.1/DTD/svg11.dtd" [
	<!ENTITY ns_extend "http://ns.adobe.com/Extensibility/1.0/">
	<!ENTITY ns_ai "http://ns.adobe.com/AdobeIllustrator/10.0/">
	<!ENTITY ns_graphs "http://ns.adobe.com/Graphs/1.0/">
	<!ENTITY ns_vars "http://ns.adobe.com/Variables/1.0/">
	<!ENTITY ns_imrep "http://ns.adobe.com/ImageReplacement/1.0/">
	<!ENTITY ns_sfw "http://ns.adobe.com/SaveForWeb/1.0/">
	<!ENTITY ns_custom "http://ns.adobe.com/GenericCustomNamespace/1.0/">
	<!ENTITY ns_adobe_xpath "http://ns.adobe.com/XPath/1.0/">
]>
<svg version="1.1" id="Layer_1" xmlns:x="&ns_extend;" xmlns:i="&ns_ai;" xmlns:graph="&ns_graphs;"
	 xmlns="http://www.w3.org/2000/svg" xmlns:xlink="http://www.w3.org/1999/xlink" x="0px" y="0px" width="64px" height="64px"
	 viewBox="0 0 64 64" style="enable-background:new 0 0 64 64;" xml:space="preserve">
<metadata>
	<sfw  xmlns="&ns_sfw;">
		<slices></slices>
		<sliceSourceBounds  bottomLeftOrigin="true" height="31.3" width="62.7" x="0.8" y="-50.5"></sliceSourceBounds>
	</sfw>
</metadata>
<path d="M4.2,34.9c-0.6-0.9-1.3-1.6-1.9-2.5C-0.9,27.4,1.5,21,7.2,19.5c2.8-0.7,5.3,0.1,7.7,1.5c1.4,0.8,2.6,1.9,3.9,2.8
	c1.5,1.1,3.2,1.8,5.2,1.8c5.6,0,11.3,0,16.9,0c1.7,0,3.2-0.6,4.5-1.7c2.3-2,4.8-3.7,7.8-4.5c5.6-1.4,10.3,3.5,10.3,8
	c0,2.6-1.2,4.8-2.8,6.7c-0.2,0.2-0.4,0.4-0.6,0.7c0.6,0.7,1.2,1.4,1.7,2.2c3.5,5.1,1.3,11.5-4.5,13.2c-2.1,0.6-4.2,0.2-6.1-0.6
	c-2.1-0.9-4-2.3-5.7-3.8c-1.4-1.2-3-1.8-4.8-1.8c-5.8,0-11.6,0-17.3,0c-1.5,0-2.9,0.6-4.1,1.5c-2.4,2-4.8,3.9-7.9,4.7
	C5.4,51.8,0.7,46.5,0.8,42c0.1-2.5,1.2-4.6,2.9-6.5C3.9,35.3,4.1,35.1,4.2,34.9z"/>
</svg>
