<?xml version="1.0" encoding="utf-8"?>
<!-- Generator: Adobe Illustrator 19.1.0, SVG Export Plug-In . SVG Version: 6.00 Build 0)  -->
<svg version="1.1" id="Layer_1" xmlns="http://www.w3.org/2000/svg" xmlns:xlink="http://www.w3.org/1999/xlink" x="0px" y="0px"
	 viewBox="-93 41 64 64" style="enable-background:new -93 41 64 64;" xml:space="preserve">
<style type="text/css">
	.st0{fill:#FA940B;}
</style>
<path class="st0" d="M-88.8,75.9c-0.6-0.9-1.3-1.6-1.9-2.5c-3.2-5-0.8-11.4,4.9-12.9c2.8-0.7,5.3,0.1,7.7,1.5
	c1.4,0.8,2.6,1.9,3.9,2.8c1.5,1.1,3.2,1.8,5.2,1.8c5.6,0,11.3,0,16.9,0c1.7,0,3.2-0.6,4.5-1.7c2.3-2,4.8-3.7,7.8-4.5
	c5.6-1.4,10.3,3.5,10.3,8c0,2.6-1.2,4.8-2.8,6.7c-0.2,0.2-0.4,0.4-0.6,0.7c0.6,0.7,1.2,1.4,1.7,2.2c3.5,5.1,1.3,11.5-4.5,13.2
	c-2.1,0.6-4.2,0.2-6.1-0.6c-2.1-0.9-4-2.3-5.7-3.8c-1.4-1.2-3-1.8-4.8-1.8c-5.8,0-11.6,0-17.3,0c-1.5,0-2.9,0.6-4.1,1.5
	c-2.4,2-4.8,3.9-7.9,4.7c-6,1.6-10.7-3.7-10.6-8.2c0.1-2.5,1.2-4.6,2.9-6.5C-89.1,76.3-88.9,76.1-88.8,75.9z"/>
</svg>
