<?xml version="1.0" encoding="utf-8"?>
<!-- Generator: Adobe Illustrator 19.2.0, SVG Export Plug-In . SVG Version: 6.00 Build 0)  -->
<!DOCTYPE svg PUBLIC "-//W3C//DTD SVG 1.1//EN" "http://www.w3.org/Graphics/SVG/1.1/DTD/svg11.dtd" [
	<!ENTITY ns_extend "http://ns.adobe.com/Extensibility/1.0/">
	<!ENTITY ns_ai "http://ns.adobe.com/AdobeIllustrator/10.0/">
	<!ENTITY ns_graphs "http://ns.adobe.com/Graphs/1.0/">
	<!ENTITY ns_vars "http://ns.adobe.com/Variables/1.0/">
	<!ENTITY ns_imrep "http://ns.adobe.com/ImageReplacement/1.0/">
	<!ENTITY ns_sfw "http://ns.adobe.com/SaveForWeb/1.0/">
	<!ENTITY ns_custom "http://ns.adobe.com/GenericCustomNamespace/1.0/">
	<!ENTITY ns_adobe_xpath "http://ns.adobe.com/XPath/1.0/">
]>
<svg version="1.1" xmlns:x="&ns_extend;" xmlns:i="&ns_ai;" xmlns:graph="&ns_graphs;"
	 xmlns="http://www.w3.org/2000/svg" xmlns:xlink="http://www.w3.org/1999/xlink" x="0px" y="0px" width="64px" height="64px"
	 viewBox="0 0 64 64" style="enable-background:new 0 0 64 64;" xml:space="preserve">
<style type="text/css">
	.st0{fill:#FFFFFF;}
</style>
<metadata>
	<sfw  xmlns="&ns_sfw;">
		<slices></slices>
		<sliceSourceBounds  bottomLeftOrigin="true" height="60.6" width="60.6" x="1.7" y="-62.6"></sliceSourceBounds>
	</sfw>
</metadata>
<g id="Layer_2">
	<path d="M50.3,62.6H13.7c-6.6,0-12-5.4-12-12V14c0-6.6,5.4-12,12-12h36.6c6.6,0,12,5.4,12,12v36.6C62.3,57.2,56.9,62.6,50.3,62.6z"
		/>
	<g id="slices" transform="translate(173.000000, 138.000000)">
	</g>
	<g>
		<path class="st0" d="M42.7,58c-2.6-0.4-5.2-0.7-7.7-1.3c-4.9-1.3-9.6-1.1-14.3,0.7c-4.3,1.6-9,0.5-11.9-2.8
			c-3.2-3.6-2.3-10.1,2-13.2c0.5-0.4,1-0.7,1.6-0.9c2.9-1.4,5.2-3.4,7.3-5.8c1-1.2,2.2-2.3,3.2-3.5c4.2-4.9,13.4-3.6,16.7,1.7
			c1.5,2.4,2.8,5,5.2,6.7c1.6,1.1,3.2,2.1,4.7,3.3c2.6,2.1,3.6,5,2.8,8.3c-0.8,3.3-2.9,5.7-6.3,6.4c-1,0.2-2.1,0.2-3.2,0.2
			C42.8,57.9,42.8,57.9,42.7,58z"/>
		<path class="st0" d="M31,15.7c-0.3,1.5-0.5,3.7-1.1,5.8c-0.6,2.1-2.2,3.4-4.4,4c-2.3,0.6-4.3,0-5.4-2.1c-2.5-5-3-10.3-0.6-15.5
			C21.2,4.3,25,3.1,27.8,5c1.8,1.2,2.3,3.2,2.7,5.2C30.7,11.8,30.8,13.4,31,15.7z"/>
		<path class="st0" d="M33.5,17.9c0.7-2.7,1.2-5.5,2.1-8.1c0.7-2.2,2.5-3.3,4.8-3.3c2.3,0,4.1,1.1,5,3.2c2.2,5.4,2.1,10.8-1.3,15.7
			c-2.5,3.8-7,3.4-8.9-0.7C34.4,22.7,34.2,20.3,33.5,17.9z"/>
		<path class="st0" d="M58.2,26.8c-0.7,2.7-1,5.6-2,8.2c-1.4,3.8-5.2,4.8-8.2,2.6c-1.4-1-2-2.5-2.2-4.2c-0.5-4,0.2-7.8,2.6-11.1
			c1.2-1.7,2.9-2.8,5.1-2.7c2.1,0.1,3.7,2,4.2,4.6c0.1,0.8,0.1,1.7,0.2,2.5C58,26.8,58.1,26.8,58.2,26.8z"/>
		<path class="st0" d="M17.6,26.9c-0.2,0.7-0.4,2.2-0.8,3.5c-0.9,2.4-2.6,3.9-5.2,3.9c-2.6,0-4.2-1.5-5.2-3.8
			c-1.1-2.6-1.1-5.4-0.9-8.1c0.1-1.2,0.3-2.5,0.8-3.6c1.6-3.4,6.1-3.8,8.6-0.9C16.9,20.2,17.5,23.1,17.6,26.9z"/>
	</g>
</g>
<g id="Layer_1">
</g>
</svg>
