<?xml version="1.0" encoding="utf-8"?>
<!-- Generator: Adobe Illustrator 19.2.0, SVG Export Plug-In . SVG Version: 6.00 Build 0)  -->
<!DOCTYPE svg PUBLIC "-//W3C//DTD SVG 1.1//EN" "http://www.w3.org/Graphics/SVG/1.1/DTD/svg11.dtd" [
	<!ENTITY ns_extend "http://ns.adobe.com/Extensibility/1.0/">
	<!ENTITY ns_ai "http://ns.adobe.com/AdobeIllustrator/10.0/">
	<!ENTITY ns_graphs "http://ns.adobe.com/Graphs/1.0/">
	<!ENTITY ns_vars "http://ns.adobe.com/Variables/1.0/">
	<!ENTITY ns_imrep "http://ns.adobe.com/ImageReplacement/1.0/">
	<!ENTITY ns_sfw "http://ns.adobe.com/SaveForWeb/1.0/">
	<!ENTITY ns_custom "http://ns.adobe.com/GenericCustomNamespace/1.0/">
	<!ENTITY ns_adobe_xpath "http://ns.adobe.com/XPath/1.0/">
]>
<svg version="1.1" id="Layer_1" xmlns:x="&ns_extend;" xmlns:i="&ns_ai;" xmlns:graph="&ns_graphs;"
	 xmlns="http://www.w3.org/2000/svg" xmlns:xlink="http://www.w3.org/1999/xlink" x="0px" y="0px" width="64px" height="64px"
	 viewBox="0 0 64 64" style="enable-background:new 0 0 64 64;" xml:space="preserve">
<style type="text/css">
	.st0{fill:#F8941D;}
	.st1{fill:#FFFFFF;}
</style>
<metadata>
	<sfw  xmlns="&ns_sfw;">
		<slices></slices>
		<sliceSourceBounds  bottomLeftOrigin="true" height="60.6" width="60.6" x="1.7" y="-62.6"></sliceSourceBounds>
	</sfw>
</metadata>
<path class="st0" d="M50.3,2H13.7c-6.6,0-12,5.4-12,12v36.6c0,6.6,5.4,12,12,12h36.6c6.6,0,12-5.4,12-12V14C62.3,7.4,56.9,2,50.3,2z
	"/>
<g>
	<path class="st1" d="M42.4,54.6c-2.2-0.4-4.5-0.6-6.7-1.2c-4.2-1.1-8.3-1-12.4,0.6c-3.7,1.4-7.8,0.4-10.4-2.4
		c-2.8-3.1-2-8.8,1.8-11.5c0.4-0.3,0.9-0.6,1.4-0.8c2.5-1.2,4.5-3,6.3-5.1c0.9-1,1.9-2,2.8-3c3.7-4.3,11.7-3.2,14.6,1.5
		c1.3,2.1,2.4,4.4,4.5,5.8c1.4,0.9,2.8,1.8,4.1,2.9c2.3,1.9,3.1,4.4,2.4,7.2c-0.7,2.9-2.5,4.9-5.5,5.6c-0.9,0.2-1.9,0.1-2.8,0.2
		C42.4,54.5,42.4,54.5,42.4,54.6z"/>
	<path class="st1" d="M32.1,17.7c-0.2,1.3-0.4,3.2-1,5.1c-0.5,1.8-1.9,3-3.8,3.5c-2,0.5-3.8,0-4.7-1.9c-2.2-4.4-2.6-9-0.5-13.5
		c1.4-3.1,4.7-4.2,7.2-2.5c1.6,1.1,2,2.8,2.3,4.5C31.9,14.3,31.9,15.7,32.1,17.7z"/>
	<path class="st1" d="M34.3,19.6c0.6-2.4,1.1-4.8,1.8-7.1c0.6-1.9,2.2-2.9,4.2-2.9c2,0,3.6,0.9,4.4,2.8c2,4.7,1.8,9.4-1.1,13.7
		c-2.2,3.3-6.1,3-7.7-0.6C35.1,23.7,34.9,21.7,34.3,19.6z"/>
	<path class="st1" d="M55.9,27.4c-0.6,2.4-0.9,4.9-1.8,7.2c-1.2,3.3-4.5,4.2-7.1,2.3c-1.2-0.9-1.7-2.2-1.9-3.7
		c-0.4-3.5,0.2-6.8,2.3-9.7c1.1-1.5,2.5-2.5,4.4-2.4c1.8,0.1,3.2,1.7,3.6,4c0.1,0.7,0.1,1.5,0.2,2.2C55.7,27.3,55.8,27.3,55.9,27.4z
		"/>
	<path class="st1" d="M20.4,27.4c-0.1,0.6-0.3,1.9-0.7,3c-0.8,2.1-2.3,3.4-4.6,3.4c-2.3,0-3.7-1.3-4.5-3.3c-1-2.3-1-4.7-0.8-7.1
		c0.1-1.1,0.3-2.2,0.7-3.2c1.4-3,5.4-3.4,7.5-0.8C19.7,21.6,20.3,24.1,20.4,27.4z"/>
</g>
</svg>
