<?xml version="1.0" encoding="utf-8"?>
<!-- Generator: Adobe Illustrator 19.2.0, SVG Export Plug-In . SVG Version: 6.00 Build 0)  -->
<!DOCTYPE svg PUBLIC "-//W3C//DTD SVG 1.1//EN" "http://www.w3.org/Graphics/SVG/1.1/DTD/svg11.dtd" [
	<!ENTITY ns_extend "http://ns.adobe.com/Extensibility/1.0/">
	<!ENTITY ns_ai "http://ns.adobe.com/AdobeIllustrator/10.0/">
	<!ENTITY ns_graphs "http://ns.adobe.com/Graphs/1.0/">
	<!ENTITY ns_vars "http://ns.adobe.com/Variables/1.0/">
	<!ENTITY ns_imrep "http://ns.adobe.com/ImageReplacement/1.0/">
	<!ENTITY ns_sfw "http://ns.adobe.com/SaveForWeb/1.0/">
	<!ENTITY ns_custom "http://ns.adobe.com/GenericCustomNamespace/1.0/">
	<!ENTITY ns_adobe_xpath "http://ns.adobe.com/XPath/1.0/">
]>
<svg version="1.1" xmlns:x="&ns_extend;" xmlns:i="&ns_ai;" xmlns:graph="&ns_graphs;"
	 xmlns="http://www.w3.org/2000/svg" xmlns:xlink="http://www.w3.org/1999/xlink" x="0px" y="0px" width="64px" height="64px"
	 viewBox="0 0 64 64" style="enable-background:new 0 0 64 64;" xml:space="preserve">
<style type="text/css">
	.st0{fill:#010101;}
	.st1{fill:#FFFFFF;}
</style>
<metadata>
	<sfw  xmlns="&ns_sfw;">
		<slices></slices>
		<sliceSourceBounds  bottomLeftOrigin="true" height="60" width="60" x="2" y="-63"></sliceSourceBounds>
	</sfw>
</metadata>
<g id="Layer_2">
	<g id="soical">
		<g id="social" transform="translate(-273.000000, -138.000000)">
			<g id="slices" transform="translate(173.000000, 138.000000)">
			</g>
			<g id="square-black" transform="translate(173.000000, 138.000000)">
				<path id="square-2" class="st0" d="M105,3h54c1.7,0,3,1.3,3,3v54c0,1.7-1.3,3-3,3h-54c-1.7,0-3-1.3-3-3V6C102,4.3,103.3,3,105,3
					z"/>
			</g>
			<g id="icon" transform="translate(182.000000, 150.000000)">
				<path id="facebook" class="st1" d="M118.5,38.3V21h-3.5v-5.7h3.5v-3.5c0-4.7,1.4-8.1,6.5-8.1h6.1v5.7h-4.3
					c-2.2,0-2.6,1.4-2.6,2.9v2.9h6.6l-0.9,5.7h-5.7v17.3H118.5z"/>
			</g>
		</g>
	</g>
</g>
<g id="Layer_1">
</g>
</svg>
