<?xml version="1.0" encoding="utf-8"?>
<!-- Generator: Adobe Illustrator 19.2.0, SVG Export Plug-In . SVG Version: 6.00 Build 0)  -->
<!DOCTYPE svg PUBLIC "-//W3C//DTD SVG 1.1//EN" "http://www.w3.org/Graphics/SVG/1.1/DTD/svg11.dtd" [
	<!ENTITY ns_extend "http://ns.adobe.com/Extensibility/1.0/">
	<!ENTITY ns_ai "http://ns.adobe.com/AdobeIllustrator/10.0/">
	<!ENTITY ns_graphs "http://ns.adobe.com/Graphs/1.0/">
	<!ENTITY ns_vars "http://ns.adobe.com/Variables/1.0/">
	<!ENTITY ns_imrep "http://ns.adobe.com/ImageReplacement/1.0/">
	<!ENTITY ns_sfw "http://ns.adobe.com/SaveForWeb/1.0/">
	<!ENTITY ns_custom "http://ns.adobe.com/GenericCustomNamespace/1.0/">
	<!ENTITY ns_adobe_xpath "http://ns.adobe.com/XPath/1.0/">
]>
<svg version="1.1" xmlns:x="&ns_extend;" xmlns:i="&ns_ai;" xmlns:graph="&ns_graphs;"
	 xmlns="http://www.w3.org/2000/svg" xmlns:xlink="http://www.w3.org/1999/xlink" x="0px" y="0px" width="64px" height="64px"
	 viewBox="0 0 64 64" style="enable-background:new 0 0 64 64;" xml:space="preserve">
<style type="text/css">
	.st0{fill:#010101;}
	.st1{fill:#FFFFFF;}
</style>
<metadata>
	<sfw  xmlns="&ns_sfw;">
		<slices></slices>
		<sliceSourceBounds  bottomLeftOrigin="true" height="60" width="60" x="2" y="-63"></sliceSourceBounds>
	</sfw>
</metadata>
<g id="Layer_2">
	<g id="soical">
		<g id="social" transform="translate(-173.000000, -238.000000)">
			<g id="slices" transform="translate(173.000000, 138.000000)">
			</g>
			<g id="square-black" transform="translate(173.000000, 138.000000)">
				<path id="square-11" class="st0" d="M5,103h54c1.7,0,3,1.3,3,3v54c0,1.7-1.3,3-3,3H5c-1.7,0-3-1.3-3-3v-54
					C2,104.3,3.3,103,5,103z"/>
			</g>
			<path class="st1" d="M215.6,255h-21.3c-3,0-5.4,2.4-5.4,5.4v21.3c0,3,2.4,5.4,5.4,5.4h21.3c3,0,5.4-2.4,5.4-5.4v-21.3
				C221,257.4,218.6,255,215.6,255z M205,264.3c3.7,0,6.7,3,6.7,6.7s-3,6.7-6.7,6.7s-6.7-3-6.7-6.7S201.3,264.3,205,264.3z
				 M218.3,281.6c0,1.5-1.2,2.7-2.7,2.7h-21.3c-1.5,0-2.7-1.2-2.7-2.7v-13.3h4.4c-0.3,0.8-0.4,1.7-0.4,2.7c0,5.2,4.2,9.3,9.3,9.3
				s9.3-4.2,9.3-9.3c0-0.9-0.1-1.8-0.4-2.7h4.4V281.6z M218.3,264.3c0,0.7-0.6,1.3-1.3,1.3h-5.4c-0.7,0-1.3-0.6-1.3-1.3V259
				c0-0.7,0.6-1.3,1.3-1.3h5.4c0.7,0,1.3,0.6,1.3,1.3V264.3z"/>
		</g>
	</g>
</g>
<g id="Layer_1">
</g>
</svg>
