<?xml version="1.0" encoding="utf-8"?>
<!-- Generator: Adobe Illustrator 19.2.0, SVG Export Plug-In . SVG Version: 6.00 Build 0)  -->
<!DOCTYPE svg PUBLIC "-//W3C//DTD SVG 1.1//EN" "http://www.w3.org/Graphics/SVG/1.1/DTD/svg11.dtd" [
	<!ENTITY ns_extend "http://ns.adobe.com/Extensibility/1.0/">
	<!ENTITY ns_ai "http://ns.adobe.com/AdobeIllustrator/10.0/">
	<!ENTITY ns_graphs "http://ns.adobe.com/Graphs/1.0/">
	<!ENTITY ns_vars "http://ns.adobe.com/Variables/1.0/">
	<!ENTITY ns_imrep "http://ns.adobe.com/ImageReplacement/1.0/">
	<!ENTITY ns_sfw "http://ns.adobe.com/SaveForWeb/1.0/">
	<!ENTITY ns_custom "http://ns.adobe.com/GenericCustomNamespace/1.0/">
	<!ENTITY ns_adobe_xpath "http://ns.adobe.com/XPath/1.0/">
]>
<svg version="1.1" xmlns:x="&ns_extend;" xmlns:i="&ns_ai;" xmlns:graph="&ns_graphs;"
	 xmlns="http://www.w3.org/2000/svg" xmlns:xlink="http://www.w3.org/1999/xlink" x="0px" y="0px" width="64px" height="64px"
	 viewBox="0 0 64 64" style="enable-background:new 0 0 64 64;" xml:space="preserve">
<style type="text/css">
	.st0{fill:#010101;}
	.st1{fill:#FFFFFF;}
</style>
<metadata>
	<sfw  xmlns="&ns_sfw;">
		<slices></slices>
		<sliceSourceBounds  bottomLeftOrigin="true" height="60" width="60" x="2" y="-63"></sliceSourceBounds>
	</sfw>
</metadata>
<g id="Layer_2">
	<g id="soical">
		<g id="social" transform="translate(-173.000000, -138.000000)">
			<g id="slices" transform="translate(173.000000, 138.000000)">
			</g>
			<g id="square-black" transform="translate(173.000000, 138.000000)">
				<path id="square" class="st0" d="M5,3h54c1.7,0,3,1.3,3,3v54c0,1.7-1.3,3-3,3H5c-1.7,0-3-1.3-3-3V6C2,4.3,3.3,3,5,3z"/>
			</g>
			<g id="icon" transform="translate(182.000000, 150.000000)">
				<path id="twitter" class="st1" d="M34.1,9.4c-1.2-1.4-2.9-2.3-4.8-2.3c-3.7-0.1-6.6,3-6.6,6.9c0,0.6,0.1,1.1,0.2,1.6
					c-5.5-0.4-10.4-3.2-13.7-7.5c-0.6,1-0.9,2.2-0.9,3.5c0,2.5,1.2,4.6,2.9,5.9c-1.1,0-2.1-0.4-3-0.9c0,0,0,0.1,0,0.1
					c0,3.4,2.3,6.3,5.3,7c-0.6,0.2-1.1,0.2-1.7,0.2c-0.4,0-0.8-0.1-1.2-0.1c0.8,2.8,3.3,4.9,6.2,4.9c-2.3,1.9-5.1,3-8.2,3
					c-0.5,0-1.1,0-1.6-0.1c2.9,2,6.4,3.2,10.2,3.2c12.2,0,18.9-10.6,18.9-19.8c0-0.3,0-0.6,0-0.9c1.3-1,2.4-2.2,3.3-3.6
					c-1.2,0.5-2.5,0.9-3.8,1c1.4-0.8,2.4-2.2,2.9-3.8C37,8.6,35.6,9.1,34.1,9.4z"/>
			</g>
		</g>
	</g>
</g>
<g id="Layer_1">
</g>
</svg>
